<svg width="32" height="32" viewBox="0 0 32 32" fill="none" xmlns="http://www.w3.org/2000/svg">
<circle cx="16" cy="16" r="16" fill="#509EFF"/>
<path d="M20.1057 19.391C18.8337 19.703 17.5317 19.859 16.1997 19.859C14.8677 19.859 13.8417 19.673 13.1217 19.301C12.4017 18.917 11.8797 18.281 11.5557 17.393C11.2437 16.505 11.0877 15.227 11.0877 13.559C11.0877 11.171 11.4537 9.539 12.1857 8.663C12.9297 7.775 14.3397 7.331 16.4157 7.331C17.2797 7.331 18.2997 7.451 19.4757 7.691L20.1057 7.817L19.9977 11.039C19.0137 10.919 18.1017 10.859 17.2617 10.859C16.4337 10.859 15.8997 11.021 15.6597 11.345C15.4197 11.657 15.2997 12.311 15.2997 13.307C15.2997 14.303 15.3537 14.993 15.4617 15.377C15.5817 15.761 15.7677 16.019 16.0197 16.151C16.2717 16.271 16.6797 16.331 17.2437 16.331L20.0517 16.223L20.1057 19.391Z" fill="white"/>
<rect x="8" y="22" width="15" height="4" fill="#11609A"/>
</svg>
