<svg width="19" height="21" viewBox="0 0 19 21" fill="none" xmlns="http://www.w3.org/2000/svg">
<path fill-rule="evenodd" clip-rule="evenodd" d="M8.01297 17.1061C8.01693 17.2061 8.00683 17.3038 7.98712 17.4025C7.95249 17.5762 7.88561 17.7599 7.79093 17.9296C7.52181 18.4121 7.06463 18.7341 6.47603 18.7341C5.08944 18.7341 4.54524 18.0071 3.86386 16.1865C3.40238 14.9536 3.18467 14.6627 2.6665 14.6627L2.6665 13.0342C4.0531 13.0342 4.5973 13.7612 5.27868 15.5817C5.74015 16.8147 5.95786 17.1055 6.47603 17.1055C6.47603 16.8693 6.473 16.66 6.46663 16.3765C6.4517 15.7123 6.44998 15.5767 6.4771 15.3991C6.48793 15.0114 6.58158 14.7363 6.76936 14.4633C5.06894 14.0677 3.92206 13.2507 3.26382 11.9256L3.01724 11.3058C2.77701 10.568 2.6665 9.73201 2.6665 8.76653C2.6665 7.6546 2.98372 6.6604 3.57623 5.82934C3.3914 5.03938 3.41671 4.07422 3.82483 2.98423L3.95819 2.62806L4.30008 2.51118C4.34585 2.49554 4.4015 2.4814 4.46688 2.47044C5.13261 2.35877 6.07992 2.6252 7.31835 3.47298C8.04842 3.29212 8.81725 3.2008 9.59128 3.2008C10.283 3.2008 10.9709 3.27532 11.6277 3.42225C12.8326 2.61586 13.7539 2.36294 14.4017 2.47058C14.4664 2.48132 14.5214 2.49518 14.5668 2.51057L14.9109 2.62716L15.0444 2.98549C15.4014 3.94368 15.4627 4.82672 15.3328 5.5994C16.0139 6.47288 16.3808 7.54672 16.3808 8.76653C16.3808 9.7949 16.3119 10.5682 16.1137 11.3205L15.9045 11.9339C15.357 13.2577 14.1495 14.0838 12.2875 14.4773C12.481 14.7637 12.5713 15.0545 12.5713 15.477V16.2913C12.5713 16.6859 12.5713 16.698 12.5704 17.1055C12.5722 17.1348 12.5744 17.1491 12.5769 17.1581C12.5763 17.1583 12.5713 18.7341 12.5713 18.7341C11.9223 18.7341 11.4397 18.3958 11.2024 17.8623C11.0794 17.5856 11.0426 17.3215 11.0475 17.094V15.477C11.0475 15.4087 11.0452 15.4048 10.8897 15.2385C10.4738 14.7941 10.2856 14.4587 10.2856 13.8485V13.1119L10.9713 13.0383C13.0127 12.8192 14.1229 12.2133 14.491 11.3282L14.663 10.8256C14.7999 10.3001 14.857 9.66013 14.857 8.76653C14.857 7.81702 14.5468 7.03266 13.9602 6.40599L13.6378 6.06154L13.7694 5.59506C13.8863 5.18064 13.9141 4.69027 13.7904 4.13096C13.7698 4.13652 13.7485 4.14259 13.7263 4.14918C13.3183 4.27057 12.809 4.53102 12.1952 4.96949L11.9153 5.16947L11.5885 5.08286C10.9563 4.91534 10.2771 4.82934 9.59128 4.82934C8.82869 4.82934 8.07486 4.93303 7.37847 5.13593L7.03862 5.23494L6.74789 5.02239C6.11308 4.55827 5.58571 4.28226 5.16283 4.15332C5.13263 4.14412 5.10387 4.13588 5.07653 4.12854C4.929 4.77587 4.98735 5.3077 5.13677 5.70678L5.31594 6.18529L4.98794 6.56311C4.46528 7.16517 4.19031 7.89782 4.19031 8.76653C4.19031 9.56187 4.27743 10.2209 4.43708 10.7174L4.63646 11.2217C5.13488 12.2213 6.19352 12.8226 8.08104 13.0388L8.76174 13.1168V13.8485C8.76174 14.4587 8.57348 14.7941 8.15763 15.2385C8.00205 15.4048 7.99984 15.4087 7.99984 15.477L7.98671 15.6275C7.97802 15.6769 7.97802 15.8044 7.99 16.3374C7.99551 16.5826 7.99865 16.7766 7.99956 16.9794C8.00866 17.0214 8.01004 17.0485 8.01297 17.1061Z" fill="#6C6C6C"/>
</svg>
