<svg width="16" height="15" viewBox="0 0 16 15" fill="none" xmlns="http://www.w3.org/2000/svg">
<path fill-rule="evenodd" clip-rule="evenodd" d="M11.9255 0.436394L9.77529 4.73683H6.01429L3.86407 0.436394C3.54434 -0.203065 2.6072 -0.122182 2.40176 0.562604L0.0333368 8.45735C-0.0603289 8.76957 0.0475235 9.10725 0.304826 9.30738L7.4101 14.8337C7.69518 15.0554 8.09439 15.0554 8.37948 14.8337L15.4847 9.30738C15.7421 9.10725 15.8499 8.76957 15.7562 8.45735L13.3878 0.562604C13.1824 -0.122182 12.2452 -0.203065 11.9255 0.436394ZM10.9694 5.87938L12.4475 2.92309L14.0885 8.39307L7.89484 13.2104L1.70115 8.39307L3.34214 2.92309L4.82029 5.87938C4.95402 6.14684 5.22738 6.31579 5.52642 6.31579H10.2633C10.5623 6.31579 10.8357 6.14684 10.9694 5.87938Z" fill="#858585"/>
</svg>
