<svg width="19" height="20" viewBox="0 0 19 20" fill="none" xmlns="http://www.w3.org/2000/svg">
<path fill-rule="evenodd" clip-rule="evenodd" d="M3.04774 2.24231H15.2382C16.0798 2.24231 16.762 2.92454 16.762 3.76612V15.9566C16.762 16.7982 16.0798 17.4804 15.2382 17.4804H3.04774C2.20616 17.4804 1.52393 16.7982 1.52393 15.9566V3.76612C1.52393 2.92454 2.20616 2.24231 3.04774 2.24231ZM3.04763 3.76613V15.9566H15.2381V3.76613H3.04763ZM9.90479 7.57567C9.51032 7.57567 9.09355 7.69625 8.72547 7.92016L8.38098 7.57567H7.61907V12.909H9.14288V9.86138C9.14288 9.42272 9.59542 9.09948 9.90479 9.09948H10.6667C10.9761 9.09948 11.4286 9.42272 11.4286 9.86138V12.909H12.9524V9.86138C12.9524 8.44971 11.7288 7.57567 10.6667 7.57567H9.90479ZM6.09526 6.81376C6.51604 6.81376 6.85716 6.47264 6.85716 6.05185C6.85716 5.63106 6.51604 5.28995 6.09526 5.28995C5.67447 5.28995 5.33335 5.63106 5.33335 6.05185C5.33335 6.47264 5.67447 6.81376 6.09526 6.81376ZM5.33335 7.57567V12.909H6.85716V7.57567H5.33335Z" fill="#6C6C6C"/>
</svg>
