<svg width="237" height="26" viewBox="0 0 237 26" fill="none" xmlns="http://www.w3.org/2000/svg">
<path d="M18.684 24.532C16.14 25.156 13.536 25.468 10.872 25.468C8.208 25.468 6.156 25.096 4.716 24.352C3.276 23.584 2.232 22.312 1.584 20.536C0.96 18.76 0.648 16.204 0.648 12.868C0.648 8.092 1.38 4.828 2.844 3.076C4.332 1.3 7.152 0.411999 11.304 0.411999C13.032 0.411999 15.072 0.651999 17.424 1.132L18.684 1.384L18.468 7.828C16.5 7.588 14.676 7.468 12.996 7.468C11.34 7.468 10.272 7.792 9.792 8.44C9.312 9.064 9.072 10.372 9.072 12.364C9.072 14.356 9.18 15.736 9.396 16.504C9.636 17.272 10.008 17.788 10.512 18.052C11.016 18.292 11.832 18.412 12.96 18.412L18.576 18.196L18.684 24.532ZM19.3753 25L24.7033 0.879999H37.3393L42.7753 25H34.3513L33.6673 22.228H28.1593L27.5833 25H19.3753ZM30.6073 7.432L29.2393 15.856H32.8033L31.5073 7.432H30.6073ZM51.6682 0.879999V16.684C51.6682 17.38 51.8362 17.872 52.1722 18.16C52.5322 18.448 53.1202 18.592 53.9362 18.592C54.7522 18.592 55.3282 18.448 55.6642 18.16C56.0002 17.872 56.1682 17.38 56.1682 16.684V0.879999H64.5202V16.216C64.5202 19.624 63.6682 22.024 61.9642 23.416C60.2602 24.784 57.5722 25.468 53.9002 25.468C50.2522 25.468 47.5762 24.796 45.8722 23.452C44.1682 22.108 43.3162 19.744 43.3162 16.36V0.879999H51.6682ZM77.4307 25H66.8827V0.879999H77.0707C81.2227 0.879999 84.2107 1.816 86.0347 3.688C87.8587 5.56 88.7707 8.56 88.7707 12.688C88.7707 16.792 87.8947 19.876 86.1427 21.94C84.3907 23.98 81.4867 25 77.4307 25ZM80.3467 13.084C80.3467 10.924 80.1187 9.484 79.6627 8.764C79.2307 8.044 78.2467 7.684 76.7107 7.684H75.2347V18.196H76.7107C77.9587 18.196 78.8827 17.884 79.4827 17.26C80.0587 16.636 80.3467 15.244 80.3467 13.084ZM99.0053 0.879999V16.684C99.0053 17.38 99.1733 17.872 99.5093 18.16C99.8693 18.448 100.457 18.592 101.273 18.592C102.089 18.592 102.665 18.448 103.001 18.16C103.337 17.872 103.505 17.38 103.505 16.684V0.879999H111.857V16.216C111.857 19.624 111.005 22.024 109.301 23.416C107.597 24.784 104.909 25.468 101.237 25.468C97.5893 25.468 94.9133 24.796 93.2093 23.452C91.5053 22.108 90.6533 19.744 90.6533 16.36V0.879999H99.0053ZM124.624 18.772H122.572V25H114.22V0.879999H124.372C128.092 0.879999 130.756 1.504 132.364 2.752C133.972 3.976 134.776 6.268 134.776 9.628C134.776 12.964 133.888 15.352 132.112 16.792L134.488 25H125.992L124.624 18.772ZM124.588 12.184C125.764 12.184 126.352 11.404 126.352 9.844C126.352 8.26 125.692 7.468 124.372 7.468H122.536V12.184H124.588ZM144.719 12.94C144.719 14.98 144.911 16.456 145.295 17.368C145.703 18.256 146.531 18.7 147.779 18.7C149.051 18.7 149.879 18.256 150.263 17.368C150.647 16.48 150.839 15.004 150.839 12.94C150.839 10.852 150.647 9.376 150.263 8.512C149.903 7.624 149.087 7.18 147.815 7.18C146.543 7.18 145.703 7.636 145.295 8.548C144.911 9.436 144.719 10.9 144.719 12.94ZM159.263 12.94C159.263 17.332 158.351 20.524 156.527 22.516C154.703 24.484 151.787 25.468 147.779 25.468C143.795 25.468 140.879 24.472 139.031 22.48C137.207 20.488 136.295 17.308 136.295 12.94C136.295 8.548 137.207 5.368 139.031 3.4C140.855 1.408 143.771 0.411999 147.779 0.411999C151.787 0.411999 154.703 1.408 156.527 3.4C158.351 5.368 159.263 8.548 159.263 12.94ZM161.168 25V17.836H169.376V25H161.168ZM182.344 25H171.796V0.879999H181.984C186.136 0.879999 189.124 1.816 190.948 3.688C192.772 5.56 193.684 8.56 193.684 12.688C193.684 16.792 192.808 19.876 191.056 21.94C189.304 23.98 186.4 25 182.344 25ZM185.26 13.084C185.26 10.924 185.032 9.484 184.576 8.764C184.144 8.044 183.16 7.684 181.624 7.684H180.148V18.196H181.624C182.872 18.196 183.796 17.884 184.396 17.26C184.972 16.636 185.26 15.244 185.26 13.084ZM195.711 25V0.879999H213.783V7.54H204.063V9.592H211.623V16.18H204.063V18.34H213.783V25H195.711ZM236.42 0.879999L231.704 25H219.392L214.496 0.879999H223.352L225.224 16.576H225.872L227.564 0.879999H236.42Z" fill="#509EFF"/>
</svg>
