<svg width="19" height="20" viewBox="0 0 19 20" fill="none" xmlns="http://www.w3.org/2000/svg">
<path fill-rule="evenodd" clip-rule="evenodd" d="M8.33352 15.1031C4.96721 15.1031 2.23828 12.1867 2.23828 8.589C2.23828 4.99134 4.96721 2.07486 8.33352 2.07486C11.6998 2.07486 14.4288 4.99134 14.4288 8.589C14.4288 10.0944 13.951 11.4805 13.1486 12.5836L17.2532 16.9702L16.1757 18.1217L12.0711 13.7351C11.039 14.5925 9.74205 15.1031 8.33352 15.1031ZM12.9048 8.589C12.9048 11.2872 10.8581 13.4746 8.3334 13.4746C5.80867 13.4746 3.76198 11.2872 3.76198 8.589C3.76198 5.89075 5.80867 3.70339 8.3334 3.70339C10.8581 3.70339 12.9048 5.89075 12.9048 8.589Z" fill="#6C6C6C"/>
</svg>
