<svg width="160" height="26" viewBox="0 0 160 26" fill="none" xmlns="http://www.w3.org/2000/svg">
<path d="M19.44 7.828C16.056 7.468 13.596 7.288 12.06 7.288C10.524 7.288 9.624 7.336 9.36 7.432C9.12 7.504 9 7.672 9 7.936C9 8.2 9.144 8.404 9.432 8.548C9.72 8.692 10.62 8.932 12.132 9.268C13.668 9.604 14.916 9.94 15.876 10.276C16.86 10.588 17.736 11.044 18.504 11.644C19.296 12.22 19.812 12.94 20.052 13.804C20.316 14.644 20.448 15.784 20.448 17.224C20.448 20.2 19.656 22.324 18.072 23.596C16.488 24.868 14.1 25.504 10.908 25.504C9.372 25.504 7.752 25.396 6.048 25.18C4.368 24.964 3.072 24.748 2.16 24.532L0.756 24.208L1.116 17.836C4.788 18.364 7.8 18.628 10.152 18.628C11.4 18.628 12.024 18.352 12.024 17.8C12.024 17.56 11.88 17.392 11.592 17.296C11.304 17.176 10.524 17.02 9.252 16.828C5.892 16.3 3.6 15.484 2.376 14.38C1.176 13.252 0.576 11.416 0.576 8.872C0.576 5.632 1.356 3.412 2.916 2.212C4.476 1.012 6.876 0.411999 10.116 0.411999C12.396 0.411999 15.072 0.639999 18.144 1.096L19.656 1.348L19.44 7.828ZM22.2525 25V0.879999H30.6045V25H22.2525ZM32.3682 7.684V0.879999H50.3682V7.684H45.6882V25H37.3362V7.684H32.3682ZM52.1522 25V0.879999H70.2242V7.54H60.5042V9.592H68.0642V16.18H60.5042V18.34H70.2242V25H52.1522ZM88.47 25H72.27V0.879999H80.622V18.196H88.47V25ZM97.7766 12.94C97.7766 14.98 97.9686 16.456 98.3526 17.368C98.7606 18.256 99.5886 18.7 100.837 18.7C102.109 18.7 102.937 18.256 103.321 17.368C103.705 16.48 103.897 15.004 103.897 12.94C103.897 10.852 103.705 9.376 103.321 8.512C102.961 7.624 102.145 7.18 100.873 7.18C99.6006 7.18 98.7606 7.636 98.3526 8.548C97.9686 9.436 97.7766 10.9 97.7766 12.94ZM112.321 12.94C112.321 17.332 111.409 20.524 109.585 22.516C107.761 24.484 104.845 25.468 100.837 25.468C96.8526 25.468 93.9366 24.472 92.0886 22.48C90.2646 20.488 89.3526 17.308 89.3526 12.94C89.3526 8.548 90.2646 5.368 92.0886 3.4C93.9126 1.408 96.8286 0.411999 100.837 0.411999C104.845 0.411999 107.761 1.408 109.585 3.4C111.409 5.368 112.321 8.548 112.321 12.94ZM134.566 10.816V24.28C130.222 24.976 127.006 25.324 124.918 25.324C122.83 25.324 121.042 25.096 119.554 24.64C118.09 24.16 116.938 23.38 116.098 22.3C115.258 21.22 114.67 19.948 114.334 18.484C114.022 17.02 113.866 15.16 113.866 12.904C113.866 8.272 114.73 5.032 116.458 3.184C118.186 1.336 121.102 0.411999 125.206 0.411999C126.43 0.411999 127.81 0.519999 129.346 0.735999C130.882 0.927999 132.106 1.12 133.018 1.312L134.386 1.636V7.936C130.93 7.624 128.47 7.468 127.006 7.468C125.566 7.468 124.618 7.54 124.162 7.684C123.73 7.804 123.382 7.96 123.118 8.152C122.854 8.32 122.662 8.668 122.542 9.196C122.374 9.94 122.29 11.248 122.29 13.12C122.29 14.992 122.506 16.36 122.938 17.224C123.37 18.064 124.246 18.484 125.566 18.484L126.79 18.448V16.648H125.71L125.674 10.816H134.566ZM144.903 12.94C144.903 14.98 145.095 16.456 145.479 17.368C145.887 18.256 146.715 18.7 147.963 18.7C149.235 18.7 150.063 18.256 150.447 17.368C150.831 16.48 151.023 15.004 151.023 12.94C151.023 10.852 150.831 9.376 150.447 8.512C150.087 7.624 149.271 7.18 147.999 7.18C146.727 7.18 145.887 7.636 145.479 8.548C145.095 9.436 144.903 10.9 144.903 12.94ZM159.447 12.94C159.447 17.332 158.535 20.524 156.711 22.516C154.887 24.484 151.971 25.468 147.963 25.468C143.979 25.468 141.063 24.472 139.215 22.48C137.391 20.488 136.479 17.308 136.479 12.94C136.479 8.548 137.391 5.368 139.215 3.4C141.039 1.408 143.955 0.411999 147.963 0.411999C151.971 0.411999 154.887 1.408 156.711 3.4C158.535 5.368 159.447 8.548 159.447 12.94Z" fill="#FF00FF"/>
</svg>
